<?xml version="1.0" standalone="no"?>
<!DOCTYPE svg PUBLIC "-//W3C//DTD SVG 20010904//EN"
 "http://www.w3.org/TR/2001/REC-SVG-20010904/DTD/svg10.dtd">
<svg version="1.0" xmlns="http://www.w3.org/2000/svg"
 width="1000.000000pt" height="1000.000000pt" viewBox="0 0 1000.000000 1000.000000"
 preserveAspectRatio="xMidYMid meet">
<metadata>
Created by potrace 1.11, written by Peter Selinger 2001-2013
</metadata>
<g transform="translate(0.000000,1000.000000) scale(0.100000,-0.100000)"
fill="#000000" stroke="none">
<path d="M4559 9759 c-13 -10 -27 -19 -31 -19 -3 0 -42 -22 -85 -49 -43 -27
-115 -73 -161 -101 l-83 -52 -82 17 c-45 9 -90 19 -99 21 -33 8 -128 27 -183
38 -11 2 -32 7 -48 11 -30 8 -22 13 -197 -145 -47 -43 -103 -94 -125 -114
l-40 -36 -180 6 c-99 3 -201 6 -227 6 l-47 1 -113 -145 c-62 -79 -124 -158
-138 -176 -22 -28 -34 -33 -100 -42 -41 -6 -86 -12 -100 -15 -14 -2 -43 -6
-65 -9 -22 -3 -71 -10 -110 -16 -38 -5 -75 -10 -82 -10 -10 0 -46 -62 -163
-285 -23 -44 -52 -90 -63 -101 -12 -12 -67 -36 -122 -54 -55 -17 -109 -35
-120 -40 -11 -5 -54 -19 -95 -30 -41 -12 -80 -27 -86 -33 -6 -7 -41 -104 -77
-217 -63 -193 -68 -206 -99 -223 -32 -19 -127 -70 -278 -150 -41 -22 -78 -42
-82 -46 -3 -3 -9 -26 -13 -51 -3 -25 -8 -56 -10 -70 -2 -14 -7 -50 -10 -80 -3
-30 -8 -62 -10 -70 -2 -8 -6 -37 -10 -65 -10 -86 -15 -107 -28 -119 -7 -6 -86
-69 -176 -140 l-165 -127 1 -52 c1 -29 4 -131 7 -227 l6 -175 -41 -45 c-22
-25 -73 -81 -114 -125 -83 -91 -145 -165 -145 -172 0 -2 4 -23 10 -46 23 -101
56 -256 71 -334 l10 -52 -97 -158 c-53 -87 -105 -170 -116 -185 -10 -14 -18
-32 -18 -40 0 -7 36 -104 81 -216 l81 -203 -81 -200 c-45 -110 -81 -207 -81
-214 0 -12 61 -113 187 -313 49 -76 49 -60 3 -272 -16 -74 -31 -146 -34 -160
-2 -14 -7 -38 -11 -55 -5 -25 -1 -36 27 -65 18 -19 74 -80 123 -135 50 -55
102 -113 118 -130 l27 -30 -6 -190 c-3 -104 -6 -207 -7 -228 -1 -33 4 -41 44
-69 24 -18 49 -37 55 -43 6 -5 65 -52 131 -103 l120 -93 12 -77 c7 -42 14 -88
17 -102 2 -14 6 -50 10 -80 3 -30 11 -86 17 -123 l12 -68 85 -46 c47 -25 135
-71 195 -103 l110 -57 71 -212 c39 -116 75 -215 80 -220 8 -7 99 -39 134 -46
20 -5 282 -94 285 -97 5 -5 122 -220 168 -308 49 -94 38 -87 172 -104 28 -4
61 -9 75 -11 14 -2 75 -11 135 -20 61 -9 113 -19 116 -23 18 -20 244 -312 260
-335 7 -10 61 -10 319 -1 l145 5 36 -33 c184 -168 224 -204 261 -234 24 -18
50 -32 58 -29 8 2 30 7 49 10 19 3 96 19 171 35 75 16 151 32 169 35 29 5 54
-8 217 -110 102 -63 191 -115 198 -115 13 0 64 19 111 40 43 20 154 63 229 90
l79 29 56 -20 c31 -11 65 -25 76 -30 79 -36 244 -102 265 -106 19 -3 70 24
210 112 169 105 188 115 220 109 19 -3 46 -8 60 -10 14 -3 32 -7 40 -9 8 -2
31 -7 50 -10 19 -3 55 -11 80 -16 25 -6 52 -12 60 -14 8 -2 37 -8 63 -14 54
-13 59 -11 114 39 21 19 79 71 128 115 49 44 103 93 120 108 l30 28 185 -7
c102 -4 203 -7 225 -8 39 -1 42 1 123 104 45 58 88 112 95 120 7 8 32 41 57
72 48 62 36 58 220 83 25 3 56 8 70 10 14 2 45 6 70 10 25 3 64 8 87 11 l43 6
78 147 c42 80 89 168 102 194 14 27 36 54 50 61 14 7 108 39 210 71 102 32
190 63 196 69 5 6 20 45 33 86 12 41 26 84 31 95 5 11 25 71 45 132 28 86 42
116 60 125 26 15 99 53 255 135 58 31 108 59 112 62 4 4 10 29 13 56 3 28 10
75 15 105 5 30 11 78 15 105 5 45 9 72 20 130 2 11 4 27 4 35 1 8 27 35 59 60
31 25 64 50 72 57 8 7 62 49 120 95 l104 83 -1 50 c0 28 -4 129 -7 225 l-7
175 33 36 c52 57 189 208 231 255 l38 43 -21 98 c-12 54 -23 107 -25 118 -3
11 -7 31 -10 45 -3 14 -7 35 -10 48 -2 13 -6 31 -9 40 -22 75 -18 92 40 186
32 50 85 136 119 191 l62 101 -17 39 c-10 22 -44 105 -75 185 -31 80 -62 155
-67 167 -9 18 4 59 74 231 72 177 83 211 72 228 -6 10 -60 97 -119 191 l-107
173 22 102 c11 57 23 112 25 123 3 11 9 43 15 70 6 28 12 59 14 70 18 84 22
74 -70 175 -48 52 -116 127 -151 165 l-63 70 6 185 c3 102 7 204 7 226 l2 42
-170 132 c-94 73 -173 135 -177 139 -6 6 -11 33 -23 119 -3 20 -8 51 -10 67
-3 17 -8 50 -11 75 -4 25 -11 78 -18 119 l-11 74 -145 76 c-262 137 -243 122
-278 220 -16 47 -45 133 -62 191 -18 58 -38 116 -45 129 -10 19 -50 36 -225
95 l-213 71 -44 85 c-118 225 -156 296 -162 302 -3 3 -28 9 -56 13 -27 3 -59
8 -70 10 -11 3 -38 7 -60 9 -22 3 -56 7 -75 10 -19 3 -69 10 -110 16 -41 6
-78 14 -81 18 -3 4 -43 54 -88 112 -46 58 -90 114 -99 125 -10 11 -24 31 -33
45 -37 55 -54 66 -100 64 -24 -1 -125 -5 -224 -8 l-180 -6 -165 150 c-185 168
-159 157 -296 125 -34 -8 -73 -16 -85 -19 -13 -3 -35 -7 -49 -10 -14 -3 -60
-13 -103 -22 l-78 -15 -132 82 c-73 45 -148 91 -167 104 -91 57 -61 60 -290
-32 l-206 -83 -79 29 c-81 30 -144 54 -180 71 -11 5 -52 22 -91 38 -70 29 -71
29 -95 11z"/>
</g>
</svg>
